# xmcd
#
# Track frame offsets: 
#        150
#        26625
#        45700
#        68617
#        83037
#        98702
#        121592
#        137272
#        154845
#        173882
#
# Disc length: 2619 seconds
#
# Revision: 0
# Processed by: cddbd v1.5.2PL0 Copyright (c) Steve Scherf et al.
# Submitted via: ExactAudioCopy v1.0b3
#
DISCID=700a390a
DTITLE=Tuan Vu - Dac Biet
DYEAR=1991
DGENRE=
TTITLE0=Tuan Vu, Huong Lan - Nguoi yeu co don
TTITLE1=Chuyen tau hoang hon
TTITLE2=Le bong
TTITLE3=Bay ngay doi mong
TTITLE4=Thuong doi hoa
TTITLE5=Dua em vao ha
TTITLE6=Chieu hanh quan
TTITLE7=Chin thang quan truong
TTITLE8=Em cho anh tro lai
TTITLE9=Dem buon tinh le
EXTD=
EXTT0=
EXTT1=
EXTT2=
EXTT3=
EXTT4=
EXTT5=
EXTT6=
EXTT7=
EXTT8=
EXTT9=
PLAYORDER=
